<?xml version="1.0" encoding="utf-8"?>
<!DOCTYPE svg PUBLIC "-//W3C//DTD SVG 1.1//EN" "http://www.w3.org/Graphics/SVG/1.1/DTD/svg11.dtd">
<svg version="1.1" id="router" xmlns="http://www.w3.org/2000/svg" xmlns:xlink="http://www.w3.org/1999/xlink" x="0px" y="0px"
	 width="400px" height="100px" viewBox="0 0 400 100" enable-background="new 0 0 400 100" xml:space="preserve">
<path fill="none" stroke="#6B6666" stroke-width="5" stroke-miterlimit="10" d="M199.096,79.276C190,79,181,77,173,72
	c-5-2-9-11-2-15c10-6,21-1,32,0c4,0,8-2,10-6c-7-15-26-15-40-16c-34-2-69,1-103.379,1.415"/>
<circle fill="#0537A5" stroke="#000000" stroke-miterlimit="10" cx="43.368" cy="44.615" r="33.256"/>
<g>
	<defs>
		<circle id="SVGID_1_" cx="43.368" cy="44.615" r="33.256"/>
	</defs>
	<clipPath id="SVGID_2_">
		<use xlink:href="#SVGID_1_"  overflow="visible"/>
	</clipPath>
	<path clip-path="url(#SVGID_2_)" fill="#26C431" stroke="#000000" stroke-miterlimit="10" d="M31.824,19.465
		c-0.159-0.95,1.105-1.309,1.478-2.1c0.378-0.802,0.211-2.328-1.082-1.78c-0.698,0.295-0.562,1.565-1.465,0.658
		c-0.755-0.759-0.025-1.42,0.36-2.058c-1.587-0.125-3.158,2.341-3.791,3.479c-0.879,1.583-0.689,3.349-2.117,4.803
		c-0.843,0.858-1.807,1.514-2.61,2.473c-0.464,0.555-0.947,1.074-1.495,1.603c-0.867,0.838-1.59,1.794-2.355,2.754
		c-0.535,0.671-1.191,1.014-1.7,1.69c-1.041,1.383-1.352,4.061-1.522,5.755c-0.098,0.976-0.446,1.845-0.578,2.819
		c-0.143,1.049,0.047,2.148-0.017,3.207c-0.048,0.798-0.585,1.355-0.607,2.148c-0.026,0.954,0.694,2.3,1.08,3.124
		c0.327,0.698,0.606,1.869,1.214,2.33c0.426,0.323,0.657,0.047,1.084,0.593c0.328,0.418,0.441,1.125,0.645,1.603
		c0.471,1.101,0.677,2.283,1.156,3.376c0.526,1.199,0.688,1.379,1.922,1.526c0.534,0.064,0.809-0.188,1.125,0.595
		c0.149,0.371,0.134,0.996,0.078,1.4c-0.137,0.975-0.642,1.117-1.127,1.773c-1.291,1.745,0.876,4.792,1.798,6.324
		c0.699,1.161,1.524,2.018,2.808,2.485c1.36,0.496,1.262,0.409,1.52,1.815c0.146,0.802,0.389,2.215,0.793,2.897
		c0.612,1.032,2.459,1.851,3.532,2.279c1.05,0.42,2.029,0.466,2.973,0.152c0.838-0.278,2.046-0.156,2.9-0.525
		c0.913-0.394,1.573-1.06,2.577-1.327c1.142-0.304,2.539,0.153,3.333-0.878c0.605-0.785,0.21-1.877,0.765-2.624
		c0.564-0.761,2.283-0.848,2.329-2.07c0.027-0.725-0.835-1.91-1.399-2.105c-1.062-0.368-2.575-0.307-3.708-0.502
		c-1.249-0.217-2.236-0.411-3.399-0.971c-1.08-0.519-1.284-0.671-1.598-1.824c-0.324-1.19-0.5-1.077-1.689-1.395
		c-1.467-0.393-2.097-0.915-3.03-1.983c-0.868-0.993-1.799-1.332-2.984-1.747c-1.011-0.354-1.704-0.873-2.61-1.473
		c-0.76-0.502-2.495-1.297-3.001-0.119c-0.666,0.084-0.742-0.963-1.278-1.306c-0.804-0.515-1.457-0.287-1.727-1.455
		c-0.225-0.974,1.407-3.528-0.763-3.638c-0.194-1.066,0.912-1.425,0.89-2.287c-0.025-0.967-1.349-0.97-2.088-0.878
		c-0.546,0.068-0.473,0.55-1.042,0.083c-0.442-0.363-0.41-1.045-0.375-1.559c0.057-0.835,0.46-1.688,1.027-2.324
		c1.215-1.365,4.17-0.771,5.152,0.803c0.575,0.921-0.329,2.008,0.013,2.776c0.592,1.329,1.262-0.542,1.385-1.021
		c0.24-0.931,0.182-1.669,1.101-2.205c0.388-0.226,0.867-0.242,1.242-0.497c0.628-0.429,0.491-0.747,0.898-1.248
		c0.78-0.961,1.865-0.777,2.779-1.348c0.389-0.242,0.48-0.676,0.928-0.955c0.354-0.22,0.932-0.158,1.32-0.209
		c-0.259,0.163-0.488,0.487-0.64,0.691c0.387,0.152,1.824,0.091,2.104-0.308c0.51-0.725-1.043-0.574-0.812-1.429
		c0.191-0.708,1.184-0.458,0.479-1.267c-0.378-0.436-1.184-0.351-1.747-0.248c0.951-0.445,1.477-0.604,2.473-0.285
		c0.926,0.295,1.276,0.372,2.185-0.06c-0.308,0.667-1.143,1.312-0.687,1.995c0.344,0.515,1.448,0.552,1.984,0.487
		c0.024-0.88-0.464-1.393-0.584-2.17c-0.102-0.657,0.273-1.255-0.022-1.902c-0.457-1.002-1.115-1.072-1.178-2.319
		c-0.05-0.995-0.013-1.517-1.284-1.106c0.023-0.583-0.133-2.769-0.908-3.001c-0.88-0.264-1.532,1.236-1.832,1.807
		c-0.438,0.833-0.767,1.539-1.353,2.261c-0.328,0.404-0.861,1.421-1.505,1.324c-0.349-1.008,0.197-1.342,0.41-2.179
		c0.214-0.844-0.36-1.283-0.702-2.008c-0.719-1.526,0.005-2.447,1.573-2.693c1.378-0.215,2.537-0.32,3.775-0.927
		c0.59-0.29,1.464-0.857,1.582,0.328c0.061,0.613-0.609,1.293-1.237,1.31c-0.765,1.648,0.922,2.292,1.962,1.083
		c0.138-0.159,0.068-0.459,0.243-0.672c0.238-0.289,0.641,0.059,0.789-0.316c0.137-0.344-0.68-1.765-0.711-2.309
		c-0.071-1.23,0.175-2.964-1.705-2.6c-1.647,0.319-0.348,1.989-1.288,2.715c-0.574-0.217-0.708-1.034-1.203-1.422
		c-0.197-0.155-0.543-0.038-0.811-0.288c-0.216-0.202-0.338-0.717-0.39-0.985c0.435-0.167,1.628,0.126,1.925-0.186
		c0.245-0.258,0.072-1.295,0.167-1.657c0.096-0.365,0.746-1.108,0.688-1.375c-0.141-0.643-1.396-0.412-1.848-0.388
		c-0.165,1.281,0.422,2.521-1.217,2.655c-0.402-1.052-0.02-2.9-0.02-4.07"/>
	<path clip-path="url(#SVGID_2_)" fill="#26C431" stroke="#000000" stroke-miterlimit="10" d="M40.324,22.865
		c-0.367,0.376-1.122,0.301-1.085,0.985c1.429,0.107,1.371,1.137,1.263,2.192c-0.098,0.96,0.275,1.93,0.127,2.928
		c-0.199,1.34-0.36,1.661,0.365,2.922c0.562,0.976,1.342,1.262,2.134,0.095c0.448-0.66,0.491-1.485,1.169-1.951
		c0.994-0.681,2.609-0.659,2.428-2.359c-0.051-0.487-0.49-0.888-0.579-1.438c-0.11-0.682,0.131-1.267,0.258-1.928
		c0.29-1.515-0.077-2.539-1.683-2.955c-1.4-0.362-3.862-0.062-4.598,1.408"/>
	<path clip-path="url(#SVGID_2_)" fill="#26C431" stroke="#000000" stroke-miterlimit="10" d="M72.424,38.165
		c-0.548-0.328-0.634-0.857-1.312-1c-0.929-0.195-0.817,0.167-1.207,0.676c-0.336,0.439-0.404,0.703-0.88,1.005
		c-0.402,0.255-0.811-0.038-1.086,0.52c-0.455,0.922,0.727,1.441-0.614,1.9c-0.575,0.196-2.15,0.414-2.502,0.201
		c-0.361-0.219-0.125-0.687-0.677-0.906c-0.576-0.23-1,0.124-1.394,0.424c-0.654,0.5-1.03,1.272-1.652,1.851
		c-0.542,0.505-1.379,0.778-1.9,1.306c-0.571,0.578-0.621,1.327-0.78,2.125c-0.151,0.755-0.252,1.808-0.567,2.499
		c-0.328,0.721-0.904,1.052-1.228,1.8c-0.344,0.797-0.677,1.55-0.797,2.402c-0.156,1.105,0.425,1.707,0.719,2.715
		c0.279,0.957-0.014,2.076,0.298,3.014c0.368,1.104,1.869,1.348,2.797,1.572c1.037,0.251,1.872,0.449,2.901-0.027
		c1.003-0.466,1.882-1.166,2.877-1.653c0.621-0.305,2.354-1.896,3.11-1.507c0.59,0.304,0.181,1.274,0.393,1.688
		c0.25,0.488,0.85,0.466,1.004,1.02c0.118,0.42-0.169,1.141-0.18,1.6c-0.014,0.574,0.086,1.101-0.02,1.681
		c-0.186,1.013-0.833,1.957-0.688,3.067c1.634-1.754,3.915-2.026,5.567-4.073c2.229-2.759,3.839-6.013,4.993-9.362
		c0.706-2.048,2.2-6.328,0.746-8.335c-1.307-1.804-3.806-2.415-5.594-3.574c-0.894-0.579-0.977-1.296-1.703-2.056
		c-0.589-0.615-1.434-0.972-2.025-1.569"/>
	<path clip-path="url(#SVGID_2_)" fill="#26C431" stroke="#000000" stroke-miterlimit="10" d="M56.924,34.165
		c0.148-0.027,0.338-0.006,0.485,0.015c0.229,1.436-0.799,1.422-1.685,2.205c-0.916-0.803-0.556-1.606-0.515-2.607
		c-1.324-0.387-0.382,1.461-0.88,1.87c-1.012,0.83-1.648-0.691-1.183-1.477c0.369-0.621,0.737-0.346,0.68-1.086
		c-0.029-0.371-0.813-0.544-0.504-1.225c0.554-1.219,1.58,0.352,1.518,1.188c0.84,0.301,1.528,0.386,2.385,0.617"/>
	<path clip-path="url(#SVGID_2_)" fill="#26C431" stroke="#000000" stroke-miterlimit="10" d="M21.824,48.865
		c1.753-0.207,1.7,1.231,2.468,2.323c0.242,0.345,1.302,0.856,0.961,1.304c-0.345,0.454-1.285-0.169-1.695-0.244
		c0.35-1.624-0.665-2.184-1.534-3.283"/>
	<path clip-path="url(#SVGID_2_)" fill="#26C431" stroke="#000000" stroke-miterlimit="10" d="M26.424,53.365
		c-0.153,0.311-0.491,0.474-0.869,0.521c0.758,0.15,2.127,1.072,2.684,0.176c-0.522-0.455-1.298-1.311-1.998-1.284
		c-0.095,0.461-0.454,0.698-0.817,0.987"/>
	<path clip-path="url(#SVGID_2_)" fill="#26C431" stroke="#000000" stroke-miterlimit="10" d="M31.324,56.065
		c-0.157-0.106-0.443-0.146-0.7-0.101"/>
	<path clip-path="url(#SVGID_2_)" fill="#26C431" stroke="#000000" stroke-miterlimit="10" d="M48.224,29.465
		c-1.363,0.319-0.187,1.842,0.73,1.202c0.802-0.559,0.571-2.041-0.53-1.902"/>
	<path clip-path="url(#SVGID_2_)" fill="#26C431" stroke="#000000" stroke-miterlimit="10" d="M75.907,33.948
		c-0.666-1.979-1.81-4.047-2.978-5.762c-0.827-1.214-1.526-2.654-2.453-3.78c-1.051-1.278-2.468-2.321-3.557-3.553
		c-2.83-3.199-5.597-7.207-9.946-8.483c-2.333-0.684-4.294-1.004-6.669-1.11c-1.883-0.083-3.713-0.195-5.59-0.39
		c-0.609-0.063-1.235-0.159-1.869-0.255c-1.337,0.043-2.693,0.043-3.997,0.294c-1.141,0.22-2.27,0.461-3.421,0.597
		c-0.035,0.027-0.071,0.053-0.106,0.082c-0.669,0.545-1.358,1.221-1.792,1.777c-0.764,0.978-0.945,1.352,0.417,1.5
		c0.445,0.049,0.937,0.172,1.394,0.103c0.901-0.139,0.649-0.604,1.318-0.95c0.909-0.471,2.323,0.152,3.263,0.152
		c1.069,0,1.896-0.677,2.907-0.705c1.09-0.03,1.969,0.756,2.971,1.125c0.808,0.297,1.754,0.376,2.529,0.795
		c0.811,0.439,1.435,1.25,2.272,1.66c1.335,0.654,3.11,0.396,4.228,1.495c0.772,0.761,1.705,2.183,2.217,3.143
		c0.251,0.471,0.851,1.776,0.28,2.192c-0.637,0.464-1.438-0.587-1.102-1.209l0.4-0.1c-0.507-1.182-1.834-0.911-1.715,0.385
		c-1.151,0.062-1.882,0.039-1.479,1.37c0.247,0.818,0.766,1.613,1.07,2.437c0.34,0.926-0.25,1.82,0.02,2.613
		c0.219,0.646,1.571,1.35,2.189,1.158c0.218-0.484,0.008-1.355,0.605-1.302c0.746,0.066,0.499,1.292,1.294,1.429
		c-0.221-1.445-0.007-2.166-1.205-3.089c-0.863-0.665-0.505-0.438-0.853-1.427c-0.176-0.5-0.711-0.764-0.59-1.358
		c1.225-0.071,0.58,1.373,1.408,1.782c0.89,0.439,0.936-1.825,1.887-0.954c0.307,0.28,0.104,0.858,0.071,1.154
		c-0.104,0.904-0.28,0.624,0.197,1.502c0.512,0.944,0.608,1.241,0.195,2.294c-0.215,0.547-0.684,1.632-1.53,1.283
		c-0.152-0.063-1.335-2.378-1.463-0.777c-0.023,0.298,0.702,0.692,0.901,1.1c0.193,0.396,0.169,0.865,0.197,1.3
		c0.059,0.902-0.04,1.662-0.494,2.4c-0.315,0.51-0.843,0.883-1.098,1.407c1.625,0.451,2.976,1.822,0.873,2.668
		c-1.087,0.437-1.212,0.43-0.831,1.503c0.269,0.756,0.552,1.494,0.565,2.307c0.719,0.036,1.531-0.173,1.962,0.503
		c0.407-1.153,1.606-1.354,1.625-2.788c0.007-0.536-0.327-0.988-0.208-1.582c0.052-0.258,0.342-0.523,0.41-0.795
		c0.07-0.278-0.03-0.907,0.093-1.127c0.19-0.339,0.415-0.094,0.607-0.291c0.038-0.039,0.43-0.524,0.396-0.51
		c0.668-0.272,0.974-0.094,1.705,0.227c0.618,0.272,1.673,0.586,1.728,1.193c0.082-0.44-0.103-0.833-0.118-1.5
		c0.128,0.017,0.294-0.029,0.432-0.015c-0.78-0.189-3.251-0.839-3.234-1.885c1.257-0.286,2.039,1.361,3.392,0.698
		c0.22,0.352,0.843,1.301,1.3,0.992c0.806-0.544-0.575-1.133-0.61-1.507c-0.035-0.372,0.676-0.733,0.685-1.257
		c0.008-0.49-0.304-0.806-0.571-1.208c-0.564-0.848-0.893-1.536-0.593-2.515c0.577-0.153,0.387-0.676,0.4-1.202
		c0.949-0.19,2.253,0.452,2.07,1.517c-0.129,0.749-1.028,1.456-1.188,2.26c-0.13,0.661-0.182,2.26,0.422,2.705
		c0.809,0.593,1.662-0.679,1.997-1.379c0.894,0.047,1.597,2.701,2.433,3.304c0.707,0.51,1.68,0.782,2.352,1.401
		c0.543,0.5,0.729,1.213,1.32,1.664C77.394,39.684,76.394,35.396,75.907,33.948z"/>
</g>
<polyline fill="#070707" points="356.774,57.714 337.591,58.836 334.341,28.765 332.022,23.848 334.079,59.093 330.28,59.244 
	330.481,62.299 336.925,65.383 377.774,64.97 380.013,62.754 383.085,61.634 383.64,61.619 383.216,59.275 379.896,58.953 
	382.528,26.351 381.161,24.422 376.942,58.273 365.173,57.986 359.36,57.566 359.714,26.774 358.313,24.534 357.474,27.054 
	356.612,58.113 355.653,58.273 "/>
</svg>
